<svg width="2560" height="1599.9999999999998" xmlns="http://www.w3.org/2000/svg">
 <!-- Created with Method Draw - http://github.com/duopixel/Method-Draw/ -->
 <g>
  <title>background</title>
  <rect fill="#fff" id="canvas_background" height="1602" width="2562" y="-1" x="-1"/>
  <g display="none" overflow="visible" y="0" x="0" height="100%" width="100%" id="canvasGrid">
   <rect fill="url(#gridpattern)" stroke-width="0" y="0" x="0" height="100%" width="100%"/>
  </g>
 </g>
 <g>
  <title>Layer 1</title>
  <rect id="svg_2" height="1607.498467" width="2567.497551" y="-3.749214" x="-3.748776" stroke-opacity="null" stroke-width="1.5" stroke="#000" fill="#f998c7"/>
  <path id="svg_3" d="m-73.748709,543.750263c0,-2.499997 487.499535,-464.999556 889.999151,-69.999933c402.499616,394.999624 832.499206,-62.49994 831.247939,-63.750733c1.251267,1.250793 531.250762,-491.248738 983.75033,41.250755c452.499569,532.499492 34.999967,1224.998831 33.748671,1223.748002c1.251296,1.250829 -2743.746086,-16.249154 -2742.497306,-17.499982c-1.24878,1.250828 3.751215,-1111.248111 3.751215,-1113.748109z" stroke-width="1.5" stroke="#ffffff" fill="#f9c7c7"/>
  <ellipse ry="71.249932" rx="211.249799" id="svg_4" cy="267.500527" cx="1120.000153" stroke-width="1.5" stroke="#ffffff" fill="#fcfcfc"/>
  <ellipse stroke="#ffffff" ry="64.999934" rx="142.499872" id="svg_5" cy="106.250676" cx="1713.749621" stroke-width="1.5" fill="#fcfcfc"/>
  <ellipse stroke="#ffffff" ry="64.999936" rx="227.499783" id="svg_6" cy="111.250676" cx="313.750921" stroke-width="1.5" fill="#fcfcfc"/>
  <ellipse stroke="#ffffff" ry="51.249951" rx="158.749852" id="svg_7" cy="317.500482" cx="1349.999926" stroke-width="1.5" fill="#fcfcfc"/>
  <path stroke="#ffffff" id="svg_8" d="m3.822394,656.250156c0,-2.499997 496.265987,-464.999556 906.003546,-69.999933c409.737558,394.999624 847.469609,-62.49994 846.195841,-63.750733c1.273768,1.250793 540.80397,-491.248738 1001.440603,41.250755c460.636635,532.499492 35.629353,1224.998831 34.355556,1223.748002c1.273797,1.250829 -2793.085453,-16.249154 -2791.814217,-17.499982c-1.271236,1.250828 3.818671,-1111.248111 3.818671,-1113.748109z" stroke-width="1.5" fill="#b7f7f5"/>
  <path id="svg_9" d="m-168.748617,693.750126c0,-2.499997 487.499535,-464.999556 889.999151,-69.999933c402.499616,394.999624 832.499206,-62.49994 831.247939,-63.750733c1.251267,1.250793 531.250762,-491.248738 983.75033,41.250755c452.499569,532.499492 34.999967,1224.998831 33.748671,1223.748002c1.251296,1.250829 -2743.746086,-16.249154 -2742.497306,-17.499982c-1.24878,1.250828 3.751215,-1111.248111 3.751215,-1113.748109z" stroke-width="1.5" stroke="#ffffff" fill="#bababa"/>
  <path stroke="#ffffff" id="svg_10" d="m-1242.451623,951.249885c0,-2.499997 647.38326,-464.999556 1181.889439,-69.999933c534.506179,394.999624 1105.531414,-62.49994 1103.869772,-63.750733c1.661641,1.250793 705.483443,-491.248738 1306.387904,41.250755c600.904463,532.499492 46.478799,1224.998831 44.817119,1223.748002c1.66168,1.250829 -3643.604062,-16.249154 -3641.945724,-17.499982c-1.658339,1.250828 4.981489,-1111.248111 4.981489,-1113.748109z" stroke-width="1.5" fill="#f7e1e1"/>
  <ellipse ry="186.249822" rx="197.499812" id="svg_11" cy="117.50067" cx="46.251177" stroke-width="1.5" stroke="#ffffff" fill="#ff9e44"/>
  <path transform="rotate(22.992023468017578 1947.830688476562,622.3073120117189) " id="svg_12" d="m1921.709181,609.57943c1.584291,1.12168 4.937086,-1.00275 6.565964,-1.265244c-1.833331,-2.54963 5.072166,-14.970957 2.688836,-19.481841c-0.733332,-10.19852 -19.295586,-33.219562 -21.633302,-35.890946c0.891732,-1.791488 10.885291,-0.124422 10.586971,0.132581c-4.170314,3.593802 14.072793,24.218818 16.179657,36.150616c3.882114,-0.229859 8.981414,-1.785839 11.244477,0.784502c2.113317,-2.470395 18.419547,-21.345817 19.310986,-37.656075c0.127746,-2.337344 8.977894,-0.858088 7.313083,0.566567c-2.668596,10.154902 -21.487222,38.666513 -22.957407,39.704565c1.711011,8.890913 1.018305,9.500314 11.947156,16.413655c4.91846,-12.355115 15.398218,-22.842803 24.996657,-33.281067c10.838211,-11.720139 18.111987,-22.947926 30.05093,-35.148651c15.716631,-15.498456 35.788522,-29.640195 54.171989,-38.082059c12.788582,-5.872622 34.215671,-10.907082 37.500413,-11.236573c6.085191,-0.631994 11.588117,-0.519811 18.801026,0.62666c10.642851,1.691542 21.034756,2.636239 32.208687,8.247308c10.506745,7.201411 6.874697,16.226944 4.915673,24.681047c-16.18215,19.090532 -32.756193,41.954045 -37.976052,65.344587c-1.755011,8.661054 -4.91054,23.585726 -12.357969,32.960676c-11.972969,14.420551 -26.626122,13.887247 -40.393702,15.842068c8.388881,2.569556 17.487482,10.959644 25.650203,19.390682c12.733435,13.261057 18.938013,26.860392 15.649751,41.665662c-0.700039,3.105371 -12.841088,26.659246 -18.779466,34.049878c-22.539408,28.142111 -53.224964,47.227621 -77.956888,44.130095c-8.906321,-1.115404 -33.472952,-21.120194 -37.889812,-27.023098c-10.964638,-14.653548 -19.970838,-32.328525 -20.341024,-47.759984c-1.362971,-1.456819 -3.029836,-1.564453 -2.29489,-3.513469c-1.365758,4.463029 -5.702685,18.997333 -12.123303,28.185729c-9.282373,13.283808 -17.779348,-6.573495 -21.218676,-22.676959c-1.179052,-5.520224 -0.31372,-6.475903 -1.688864,-9.776772c-6.502457,2.639377 -3.078676,10.292347 -5.630525,16.474533c-2.163477,5.383563 -11.85241,21.82703 -14.528046,25.575692c-8.552854,11.982791 -27.757653,30.115603 -41.68554,34.466605c-12.926741,4.0383 -23.882726,3.471733 -34.271844,-2.228612c-13.400181,-7.352349 -32.284954,-24.427966 -43.90299,-38.312232c-14.707712,-17.179643 -27.562587,-42.991313 -15.327818,-61.172764c7.809109,-11.344206 22.508461,-28.250058 36.872534,-32.404308c-10.139639,-1.328475 -32.573447,-8.477481 -40.916421,-28.334314c-2.677836,-6.295625 -3.671208,-16.084165 -4.352327,-23.087724c-1.108212,-11.562612 -6.039725,-24.847047 -10.133479,-36.232204c-3.290902,-10.408767 -9.1074,-23.73431 -15.194645,-35.122135c-6.379404,-11.950312 -11.60953,-31.710651 -0.507466,-41.441138c3.878154,-3.399559 15.886471,-7.364587 18.39608,-7.647321c8.772561,-1.002122 20.72441,3.606511 29.596704,6.371408c5.812685,1.826477 31.317248,11.574536 38.370585,16.941939c46.498987,35.384472 79.563179,79.460594 101.044095,120.068434z" stroke-width="1.5" stroke="#ffffff" fill="#ff9335"/>
  <path transform="rotate(-20.96516990661621 544.7069702148434,1007.5809936523435) " id="svg_13" d="m512.797126,990.372855c1.935356,1.516512 6.031101,-1.355718 8.020923,-1.71061c-2.23958,-3.447101 6.196113,-20.240739 3.284658,-26.339455c-0.895832,-13.788403 -23.571316,-44.912858 -26.42705,-48.52457c1.089332,-2.422092 13.297375,-0.168219 12.93295,0.179249c-5.094419,4.858821 17.191199,32.74385 19.764925,48.875644c4.742356,-0.310769 10.971615,-2.414455 13.736153,1.060646c2.581609,-3.339975 22.501155,-28.859551 23.590128,-50.911025c0.156054,-3.16009 10.967315,-1.160135 8.933597,0.765999c-3.259933,13.729431 -26.2486,52.277137 -28.044564,53.680584c2.090156,12.020517 1.243953,12.844427 14.59454,22.191267c6.008347,-16.704119 18.810326,-30.883476 30.535694,-44.996012c13.239862,-15.845632 22.125443,-31.025603 36.709949,-47.520987c19.199296,-20.953917 43.71894,-40.073552 66.17602,-51.486956c15.622418,-7.939786 41.797559,-14.746378 45.810171,-15.19185c7.433616,-0.854457 14.15594,-0.702784 22.967167,0.847244c13.001213,2.286966 25.695871,3.564196 39.345846,11.150363c12.834946,9.736309 8.398068,21.938833 6.004942,33.368783c-19.767971,25.810405 -40.014674,56.721882 -46.391208,88.345901c-2.143906,11.709748 -5.998672,31.887908 -15.096385,44.562844c-14.626073,19.496589 -32.526234,18.775562 -49.344587,21.41848c10.247783,3.474041 21.362552,14.817442 31.33406,26.216208c15.555051,17.928954 23.134508,36.315258 19.117596,56.331988c-0.855161,4.198463 -15.686559,36.043308 -22.940829,46.035446c-27.53394,38.048142 -65.019142,63.851759 -95.231441,59.663903c-10.879882,-1.508027 -40.89026,-28.554509 -46.285858,-36.535236c-13.394304,-19.811601 -24.396198,-43.708175 -24.848414,-64.571513c-1.664994,-1.96962 -3.70122,-2.115141 -2.803417,-4.750211c-1.668398,6.034017 -6.966349,25.6844 -14.809719,38.107114c-11.339265,17.959712 -21.719093,-8.887368 -25.920546,-30.659255c-1.440319,-7.463344 -0.383237,-8.755423 -2.063102,-13.218199c-7.943344,3.568439 -3.760883,13.915256 -6.8782,22.273573c-2.642884,7.27858 -14.478798,29.510151 -17.747332,34.578344c-10.448091,16.200737 -33.908503,40.716304 -50.922685,46.598861c-15.791192,5.459783 -29.174925,4.693784 -41.86618,-3.013084c-16.369542,-9.940378 -39.439012,-33.026618 -53.631502,-51.798149c-17.96681,-23.226882 -33.670211,-58.124268 -18.724326,-82.705596c9.539538,-15.33737 27.496136,-38.194087 45.043159,-43.810634c-12.386493,-1.796099 -39.791433,-11.461557 -49.983136,-38.308001c-3.271221,-8.511687 -4.484715,-21.745796 -5.316764,-31.21461c-1.353782,-15.632654 -7.378074,-33.593215 -12.378968,-48.985952c-4.020137,-14.072656 -11.125519,-32.088795 -18.561643,-47.485137c-7.793023,-16.156826 -14.182099,-42.87281 -0.619916,-56.028431c4.737519,-4.596205 19.406771,-9.956924 22.472488,-10.339181c10.716482,-1.35487 25.316755,4.876003 36.155071,8.614145c7.100724,2.469397 38.256872,15.648776 46.873165,22.905506c56.802748,47.839817 97.193672,107.430747 123.434568,162.33256z" stroke-width="1.5" stroke="#ffffff" fill="#b7f7f5"/>
  <path id="svg_14" d="m-699.568418,270.601632c0.005401,0.003574 0.016831,-0.003195 0.022384,-0.004032c-0.00625,-0.008125 0.017291,-0.047708 0.009166,-0.062083c-0.0025,-0.0325 -0.06578,-0.105862 -0.07375,-0.114375c0.00304,-0.005709 0.037109,-0.000396 0.036092,0.000422c-0.014217,0.011452 0.047975,0.077179 0.055158,0.115202c0.013234,-0.000732 0.030618,-0.005691 0.038333,0.0025c0.007204,-0.007872 0.062794,-0.068023 0.065833,-0.12c0.000435,-0.007448 0.030606,-0.002734 0.024931,0.001805c-0.009097,0.032361 -0.073252,0.12322 -0.078264,0.126528c0.005833,0.028333 0.003471,0.030275 0.040729,0.052306c0.016767,-0.039372 0.052494,-0.072794 0.085216,-0.106058c0.036948,-0.037349 0.061745,-0.073129 0.102446,-0.112009c0.053579,-0.049389 0.122006,-0.094455 0.184677,-0.121357c0.043597,-0.018714 0.116644,-0.034758 0.127842,-0.035808c0.020745,-0.002014 0.039505,-0.001656 0.064094,0.001997c0.036282,0.00539 0.071709,0.008401 0.109802,0.026282c0.035818,0.022949 0.023436,0.051711 0.016758,0.078652c-0.055166,0.060836 -0.111669,0.133696 -0.129464,0.208236c-0.005983,0.0276 -0.01674,0.075161 -0.042129,0.105037c-0.040817,0.045954 -0.090771,0.044255 -0.137706,0.050484c0.028598,0.008188 0.059616,0.034925 0.087444,0.061793c0.043409,0.042259 0.064561,0.085597 0.053351,0.132777c-0.002386,0.009896 -0.043776,0.084956 -0.064021,0.108508c-0.076839,0.089681 -0.181449,0.150502 -0.265762,0.140631c-0.030362,-0.003554 -0.114112,-0.067304 -0.12917,-0.086115c-0.037379,-0.046697 -0.068082,-0.103022 -0.069344,-0.152198c-0.004646,-0.004642 -0.010329,-0.004985 -0.007823,-0.011196c-0.004656,0.014222 -0.019441,0.060539 -0.041329,0.08982c-0.031644,0.042332 -0.060611,-0.020948 -0.072336,-0.072265c-0.004019,-0.017591 -0.001069,-0.020637 -0.005757,-0.031156c-0.022167,0.008411 -0.010495,0.032799 -0.019195,0.0525c-0.007375,0.017156 -0.040406,0.069557 -0.049527,0.081503c-0.029157,0.038186 -0.094628,0.09597 -0.14211,0.109836c-0.044068,0.012869 -0.081418,0.011063 -0.116836,-0.007102c-0.045682,-0.02343 -0.110062,-0.077845 -0.149669,-0.122091c-0.05014,-0.054747 -0.093963,-0.137002 -0.052254,-0.194941c0.026622,-0.036151 0.076733,-0.090025 0.125702,-0.103264c-0.034567,-0.004233 -0.111046,-0.027015 -0.139488,-0.090294c-0.009129,-0.020062 -0.012515,-0.051256 -0.014837,-0.073574c-0.003778,-0.036847 -0.02059,-0.079181 -0.034546,-0.115462c-0.011219,-0.03317 -0.031048,-0.075635 -0.0518,-0.111925c-0.021748,-0.038082 -0.039578,-0.101053 -0.00173,-0.132062c0.013221,-0.010833 0.054158,-0.023469 0.062714,-0.02437c0.029906,-0.003193 0.070651,0.011493 0.100898,0.020304c0.019816,0.00582 0.106763,0.036885 0.130809,0.053989c0.158519,0.112761 0.271238,0.25322 0.344469,0.382626z" stroke-width="1.5" stroke="#ffffff" fill="#b7f7f5"/>
  <path id="svg_15" d="m-500.879013,532.88016c1.710315,1.606247 5.32981,-1.435938 7.088258,-1.81183c-1.979164,-3.651072 5.475635,-21.438419 2.902721,-27.898008c-0.791666,-14.604287 -20.830466,-47.570432 -23.354138,-51.395856c0.962665,-2.565412 11.751169,-0.178172 11.429119,0.189856c-4.502044,5.146326 15.192223,34.681362 17.466678,51.767704c4.19092,-0.329158 9.695846,-2.557323 12.138927,1.123407c2.281422,-3.537608 19.884742,-30.567222 20.847091,-53.923521c0.137908,-3.347078 9.692046,-1.228782 7.894807,0.811324c-2.880871,14.541826 -23.196438,55.370469 -24.783569,56.856961c1.847114,12.731793 1.099307,13.604455 12.897501,23.504364c5.309702,-17.692532 16.623079,-32.710907 26.985033,-47.658507c11.700344,-16.783247 19.552717,-32.861443 32.441351,-50.332889c16.966821,-22.193798 38.635344,-42.444776 58.481136,-54.533531c13.805858,-8.409598 36.937379,-15.618948 40.483408,-16.090779c6.569242,-0.905016 12.509901,-0.744369 20.296566,0.897377c11.489444,2.42229 22.70798,3.775096 34.770748,11.81015c11.342511,10.312424 7.421549,23.236993 5.306693,35.343273c-17.46937,27.337652 -35.361806,60.078217 -40.996882,93.573486c-1.894614,12.402635 -5.301152,33.774773 -13.340992,47.199707c-12.925367,20.650237 -28.744114,19.886545 -43.606846,22.68585c9.05618,3.679606 18.878535,15.694216 27.690566,27.767468c13.746325,18.989842 20.44445,38.464097 16.894621,59.665253c-0.755724,4.446893 -13.862541,38.176056 -20.273291,48.759445c-24.33232,40.299519 -57.458779,67.629982 -84.15802,63.194323c-9.61478,-1.59726 -36.13558,-30.24413 -40.903782,-38.697092c-11.836827,-20.983889 -21.559432,-46.294466 -21.959064,-68.392325c-1.47139,-2.086166 -3.270846,-2.240298 -2.477439,-5.031289c-1.474398,6.391061 -6.156309,27.204192 -13.087659,40.36198c-10.020746,19.022421 -19.193618,-9.413249 -22.90653,-32.473419c-1.27284,-7.904964 -0.338675,-9.273498 -1.823206,-14.000344c-7.0197,3.779589 -3.323571,14.738646 -6.078409,23.591541c-2.335572,7.709266 -12.795217,31.25632 -15.683689,36.624406c-9.233197,17.159363 -29.965654,43.125561 -45.001444,49.356199c-13.955008,5.782848 -25.782493,4.971524 -36.998021,-3.191374c-14.466107,-10.528568 -34.853082,-34.980862 -47.395283,-54.863139c-15.877647,-24.601258 -29.755071,-61.563585 -16.547079,-87.599434c8.43029,-16.24491 24.298911,-40.4541 39.805584,-46.402987c-10.946203,-1.902377 -35.164523,-12.139757 -44.171145,-40.574754c-2.890846,-9.015339 -3.963237,-23.032533 -4.698536,-33.061634c-1.196365,-16.557667 -6.520159,-35.580986 -10.939553,-51.884538c-3.552679,-14.90536 -9.831854,-33.987546 -16.403313,-50.294918c-6.886858,-17.112854 -12.533018,-45.409671 -0.547833,-59.343734c4.186645,-4.868171 17.15017,-10.546093 19.859409,-10.950968c9.47038,-1.43504 22.372947,5.164525 31.950994,9.12386c6.275059,2.615515 33.8084,16.574742 41.422798,24.260866c50.197779,50.670585 85.892085,113.787617 109.081714,171.938068z" stroke-width="1.5" stroke="#ffffff" fill="#b7f7f5"/>
  <path stroke="#ffffff" transform="rotate(-19.635196685791016 864.0817871093748,1162.3068847656245) " id="svg_16" d="m848.361348,1153.519671c0.953456,0.774395 2.97123,-0.692287 3.951519,-0.87351c-1.103333,-1.760234 3.052524,-10.33577 1.618191,-13.450031c-0.441333,-7.040937 -11.612442,-22.934389 -13.019323,-24.778681c0.536661,-1.236822 6.55097,-0.085899 6.371436,0.091532c-2.509772,2.481118 8.469268,16.720383 9.737218,24.957954c2.336328,-0.158692 5.405182,-1.232922 6.767135,0.541611c1.271833,-1.705532 11.085225,-14.736898 11.62171,-25.997305c0.07688,-1.613674 5.403063,-0.592414 4.401149,0.391151c-1.606011,7.010823 -12.93141,26.6949 -13.816194,27.411559c1.029718,6.13818 0.612835,6.558904 7.19002,11.331793c2.96002,-8.529824 9.266933,-15.770399 15.043452,-22.976852c6.522637,-8.091444 10.900131,-15.842975 18.085207,-24.26621c9.45856,-10.699949 21.538197,-20.463237 32.601708,-26.2914c7.696406,-4.054388 20.591626,-7.530119 22.568445,-7.757596c3.662181,-0.436321 6.973944,-0.358871 11.314806,0.432639c6.405066,1.16782 12.659107,1.820028 19.383786,5.693843c6.323154,4.971768 4.13732,11.202889 2.958343,17.039501c-9.738718,13.179875 -19.713285,28.964573 -22.854693,45.113123c-1.056198,5.979489 -2.955254,16.283304 -7.437255,22.755659c-7.205555,9.955776 -16.024094,9.587589 -24.30968,10.937174c5.048585,1.773992 10.524291,7.566408 15.436769,13.387096c7.663218,9.155276 11.397247,18.544095 9.41831,28.765477c-0.421296,2.143911 -7.728005,18.405226 -11.301831,23.50763c-13.564634,19.428978 -32.031771,32.605387 -46.915902,30.466892c-5.359989,-0.770062 -20.144644,-14.58113 -22.802792,-18.656425c-6.598723,-10.116634 -12.018821,-22.319228 -12.241606,-32.972924c-0.820262,-1.00577 -1.823412,-1.08008 -1.381107,-2.425657c-0.821939,3.081223 -3.431982,13.115532 -7.296029,19.459091c-5.586304,9.170983 -10.699942,-4.538263 -12.769793,-15.655902c-0.709575,-3.811096 -0.188803,-4.470886 -1.01639,-6.749767c-3.9133,1.822194 -1.852804,7.105714 -3.388555,11.373821c-1.302021,3.716748 -7.133,15.069121 -8.743248,17.657153c-5.147266,8.272776 -16.705071,20.791453 -25.087132,23.795333c-7.779553,2.787995 -14.373067,2.396844 -20.625432,-1.538607c-8.064478,-5.075973 -19.429684,-16.864777 -26.421634,-26.450308c-8.851374,-11.86062 -16.587676,-29.68069 -9.224565,-42.232947c4.699667,-7.831905 13.54601,-19.503503 22.190575,-22.371547c-6.102223,-0.917163 -19.603305,-5.852752 -24.624262,-19.561673c-1.611571,-4.346424 -2.209401,-11.104316 -2.619311,-15.93949c-0.666942,-7.982689 -3.634818,-17.154105 -6.098515,-25.014282c-1.980526,-7.186089 -5.481003,-16.385885 -9.144419,-24.247903c-3.839244,-8.250353 -6.986831,-21.892656 -0.305402,-28.610468c2.333945,-2.347015 9.560773,-5.084423 11.071102,-5.279619c5.27949,-0.691854 12.472335,2.489892 17.811846,4.398744c3.498182,1.260977 18.847302,7.990922 23.09213,11.696512c27.983953,24.429018 47.882598,54.858647 60.810212,82.893817z" stroke-width="1.5" fill="#fcfcfc"/>
  <path stroke="#ffffff" transform="rotate(22.992023468017578 2101.8984374999995,893.5170898437502) " id="svg_17" d="m2090.984058,888.198939c0.661974,0.468679 2.062893,-0.418985 2.743498,-0.528665c-0.766032,-1.065328 2.119335,-6.255408 1.123493,-8.140219c-0.306413,-4.261311 -8.062395,-13.880336 -9.039177,-14.996537c0.372598,-0.748549 4.548269,-0.051988 4.42362,0.055397c-1.742508,1.501621 5.880123,10.119499 6.760447,15.105037c1.622088,-0.096043 3.75276,-0.746188 4.69835,0.327793c0.88302,-1.032221 7.696354,-8.919055 8.068829,-15.734072c0.053377,-0.976627 3.751289,-0.35854 3.055671,0.236732c-1.115036,4.243086 -8.97814,16.15627 -9.592436,16.590005c0.714922,3.714945 0.425485,3.969575 4.991954,6.85822c2.05511,-5.162415 6.433933,-9.54455 10.444509,-13.906035c4.528597,-4.897099 7.567845,-9.588475 12.556367,-14.686379c6.566978,-6.475816 14.953741,-12.384747 22.635019,-15.912064c5.343533,-2.453794 14.296547,-4.557374 15.669031,-4.695047c2.542613,-0.26407 4.841935,-0.217195 7.85575,0.261841c4.446969,0.706788 8.789083,1.101516 13.457956,3.446024c4.390098,3.00901 2.872497,6.780205 2.053946,10.312635c-6.761488,7.976715 -13.686724,17.52992 -15.86777,27.303335c-0.733307,3.618902 -2.051801,9.854971 -5.163607,13.772165c-5.00274,6.025428 -11.125358,5.802594 -16.877952,6.619389c3.505179,1.073654 7.306903,4.579336 10.717584,8.102129c5.32049,5.54095 7.912987,11.223245 6.539032,17.409423c-0.292502,1.297536 -5.365472,11.139199 -7.846741,14.227272c-9.417781,11.758793 -22.239318,19.733411 -32.573211,18.439152c-3.721383,-0.466056 -13.986212,-8.824782 -15.831736,-11.291229c-4.581423,-6.122783 -8.344539,-13.508028 -8.499217,-19.955851c-0.569499,-0.608712 -1.265975,-0.653685 -0.958888,-1.468055c-0.570663,1.864816 -2.382789,7.937774 -5.065555,11.777018c-3.878512,5.550456 -7.428856,-2.746644 -8.865931,-9.475255c-0.492651,-2.306549 -0.131084,-2.705867 -0.705669,-4.085089c-2.716962,1.102827 -1.286382,4.300515 -2.352638,6.883657c-0.903979,2.249448 -4.952366,9.120124 -6.070344,10.68645c-3.573692,5.006844 -11.598153,12.58339 -17.417728,14.401396c-5.401261,1.687348 -9.979068,1.450616 -14.320018,-0.931195c-5.599081,-3.072077 -13.489823,-10.206889 -18.344259,-16.008238c-6.145415,-7.178277 -11.516647,-17.963328 -6.404518,-25.560196c3.262929,-4.74002 9.40485,-11.803897 15.40668,-13.539693c-4.236708,-0.555085 -13.610366,-3.542199 -17.096363,-11.839103c-1.118897,-2.63054 -1.533964,-6.720547 -1.81856,-9.646887c-0.463051,-4.831278 -2.523615,-10.381996 -4.234134,-15.139127c-1.375058,-4.34916 -3.805402,-9.917055 -6.348873,-14.6753c-2.665546,-4.993273 -4.850882,-13.249859 -0.212038,-17.315608c1.620433,-1.420459 6.637943,-3.077191 7.686549,-3.195328c3.665494,-0.418723 8.659409,1.506931 12.366575,2.662205c2.42875,0.763168 13.085481,4.83626 16.03262,7.078955c19.428961,14.784914 33.244378,33.201514 42.219883,50.168941z" stroke-width="1.5" fill="#f998c7"/>
 </g>
</svg>